# xmcd
#
# Track frame offsets:
#	150
#	13553
#	14421
#	27072
#	40753
#	54029
#	67388
#	80606
#	93859
#	107239
#	120710
#	133698
#	146613
#	159693
#	174074
#	188591
#	203059
#	217788
#	233260
#	248828
#	262586
#	276326
#	290007
#	303813
#	317436
#	333223
#
# Disc length: 4625 seconds
#
# Revision: 1
# Processed by: cddbd v1.5.1PL2 Copyright (c) Steve Scherf et al.
# Submitted via: audiograbber 1.83.01
#
DISCID=52120f1a
DTITLE=Bix Beiderbecke - Bix Restored volume 3 disc 8
DYEAR=1928
DGENRE=Jazz
TTITLE0=Bix Beiderbecke and his Gang - Somebody Stole My Gal
TTITLE1=Bix Beiderbecke and his Gang - Thou Swell (test groove)
TTITLE2=Bix Beiderbecke and his Gang - Thou Swell (take A)
TTITLE3=Bix Beiderbecke and his Gang - Thou Swell (take C)
TTITLE4=Paul Whiteman and his Orchestra - In My Bouquet of Memories (take 1)
TTITLE5=Paul Whiteman and his Orchestra - In My Bouquet of Memories (take 3)
TTITLE6=Paul Whiteman and his Orchestra - I'm Afraid of You (take 3)
TTITLE7=Paul Whiteman and his Orchestra - I'm Afraid of You (take 4)
TTITLE8=Paul Whiteman and his Orchestra - My Angel (take 1)
TTITLE9=Paul Whiteman and his Orchestra - My Angel (take 2)
TTITLE10=Paul Whiteman and his Orchestra - My Pet (take 1)
TTITLE11=Paul Whiteman and his Orchestra - My Pet (take 2)
TTITLE12=Paul Whiteman and his Orchestra - My Pet (take 3)
TTITLE13=Paul Whiteman and his Orchestra - It Was the Dawn of Love (take 1)
TTITLE14=Paul Whiteman and his Orchestra - It Was the Dawn of Love (take 2)
TTITLE15=Paul Whiteman and his Orchestra - It Was the Dawn of Love (take 3)
TTITLE16=Paul Whiteman and his Orchestra - Dancing Shadows
TTITLE17=Paul Whiteman and his Orchestra - Forget-Me-Not (take 2)
TTITLE18=Paul Whiteman and his Orchestra - Forget-Me-Not (take 3)
TTITLE19=Paul Whiteman and his Orchestra - Dixie Dawn (take 1)
TTITLE20=Paul Whiteman and his Orchestra - Dixie Dawn (take 2)
TTITLE21=Paul Whiteman and his Orchestra - Dixie Dawn (take 3)
TTITLE22=Paul Whiteman and his Orchestra - Louisiana (take 1)
TTITLE23=Paul Whiteman and his Orchestra - Louisiana (take 3)
TTITLE24=Paul Whiteman and his Orchestra - Grieving
TTITLE25=Paul Whiteman and his Orchestra - Do I Hear You Saying (I Love You)
EXTD=
EXTT0=
EXTT1=
EXTT2=
EXTT3=
EXTT4=
EXTT5=
EXTT6=
EXTT7=
EXTT8=
EXTT9=
EXTT10=
EXTT11=
EXTT12=
EXTT13=
EXTT14=
EXTT15=
EXTT16=
EXTT17=
EXTT18=
EXTT19=
EXTT20=
EXTT21=
EXTT22=
EXTT23=
EXTT24=
EXTT25=
PLAYORDER=
